<svg viewBox="0 0 1600 900" xmlns="http://www.w3.org/2000/svg" role="img" aria-labelledby="heroTitle">
  <title id="heroTitle">Precision surgical instruments arranged on a sterile steel tray</title>
  <defs>
    <linearGradient id="bgWash" x1="0%" y1="0%" x2="100%" y2="100%">
      <stop offset="0%" stop-color="#0B1119"/>
      <stop offset="55%" stop-color="#0F1B22"/>
      <stop offset="100%" stop-color="#12915F"/>
    </linearGradient>
    <linearGradient id="passivationSweep" x1="0%" y1="0%" x2="100%" y2="0%">
      <stop offset="0%" stop-color="#7C8891"/>
      <stop offset="55%" stop-color="#18B27F"/>
      <stop offset="100%" stop-color="#80D5B9"/>
    </linearGradient>
    <linearGradient id="trayMetal" x1="0%" y1="0%" x2="0%" y2="100%">
      <stop offset="0%" stop-color="#3B4652"/>
      <stop offset="100%" stop-color="#0B1119"/>
    </linearGradient>
    <radialGradient id="glow" cx="78%" cy="35%" r="55%">
      <stop offset="0%" stop-color="#18B27F" stop-opacity="0.35"/>
      <stop offset="100%" stop-color="#18B27F" stop-opacity="0"/>
    </radialGradient>
  </defs>

  <rect width="1600" height="900" fill="url(#bgWash)"/>
  <rect width="1600" height="900" fill="url(#glow)"/>

  <g stroke="#FFFFFF" stroke-opacity="0.04" stroke-width="1">
    <path d="M0 150 H1600 M0 300 H1600 M0 450 H1600 M0 600 H1600 M0 750 H1600"/>
    <path d="M200 0 V900 M400 0 V900 M600 0 V900 M800 0 V900 M1000 0 V900 M1200 0 V900 M1400 0 V900"/>
  </g>

  <rect x="180" y="560" width="1240" height="220" rx="24" fill="url(#trayMetal)" stroke="#3B4652" stroke-width="2"/>
  <rect x="210" y="586" width="1180" height="168" rx="16" fill="#0B1119" stroke="#18B27F" stroke-opacity="0.4" stroke-width="1.5"/>
  <rect x="180" y="558" width="1240" height="4" fill="url(#passivationSweep)"/>

  <g transform="translate(320,610) rotate(-8)">
    <rect x="0" y="28" width="230" height="10" rx="5" fill="#7C8891"/>
    <path d="M230 20 L300 33 L230 46 Z" fill="#D9DEE2"/>
  </g>

  <g transform="translate(620,600) rotate(4)" fill="none" stroke="#7C8891" stroke-width="8" stroke-linecap="round">
    <path d="M10 10 L140 90"/>
    <path d="M10 90 L140 10"/>
    <circle cx="140" cy="50" r="10" fill="#18B27F" stroke="none"/>
    <path d="M140 50 L235 30" stroke="#D9DEE2"/>
    <path d="M140 50 L235 70" stroke="#D9DEE2"/>
  </g>

  <g transform="translate(900,595)" fill="none" stroke="#7C8891" stroke-width="8" stroke-linecap="round">
    <path d="M0 0 C40 40 40 90 0 130"/>
    <path d="M40 0 C0 40 0 90 40 130"/>
    <circle cx="20" cy="55" r="9" fill="#80D5B9" stroke="none"/>
  </g>

  <g transform="translate(1050,605) rotate(-3)" fill="none" stroke="#D9DEE2" stroke-width="7" stroke-linecap="round">
    <path d="M0 100 L120 20"/>
    <path d="M20 100 L140 20"/>
    <circle cx="10" cy="98" r="14" fill="none" stroke="#7C8891" stroke-width="6"/>
    <circle cx="30" cy="98" r="14" fill="none" stroke="#7C8891" stroke-width="6"/>
  </g>

  <g transform="translate(1220,610)" fill="none" stroke="#7C8891" stroke-width="8" stroke-linecap="round">
    <path d="M0 20 H120"/>
    <path d="M0 20 Q-10 60 20 70"/>
    <path d="M120 20 Q130 60 100 70"/>
  </g>

  <g fill="#80D5B9" fill-opacity="0.55">
    <circle cx="410" cy="600" r="3"/>
    <circle cx="960" cy="612" r="2.5"/>
    <circle cx="1180" cy="598" r="3"/>
  </g>
</svg>
